<svg width="1203" height="249" viewBox="0 0 1203 249" fill="none" xmlns="http://www.w3.org/2000/svg">
<path d="M296.5 213.5C288.4 213.5 280.8 212 273.7 209C266.7 205.9 260.55 201.6 255.25 196.1C250.05 190.6 245.95 184.2 242.95 176.9C239.95 169.6 238.45 161.75 238.45 153.35C238.45 145.05 239.9 137.3 242.8 130.1C245.8 122.8 249.95 116.4 255.25 110.9C260.55 105.4 266.7 101.1 273.7 98C280.7 94.9 288.3 93.35 296.5 93.35C304 93.35 310.6 94.4 316.3 96.5C322 98.5 327.65 101.8 333.25 106.4C334.05 107 334.6 107.7 334.9 108.5C335.3 109.2 335.45 109.95 335.35 110.75C335.35 111.45 335.2 112.15 334.9 112.85C334.8 114.35 334.15 115.55 332.95 116.45C331.85 117.35 330.5 117.85 328.9 117.95C327.4 117.95 325.9 117.4 324.4 116.3C320.6 113 316.6 110.5 312.4 108.8C308.2 107.1 302.9 106.25 296.5 106.25C290.4 106.25 284.65 107.5 279.25 110C273.95 112.5 269.25 115.9 265.15 120.2C261.05 124.5 257.85 129.5 255.55 135.2C253.25 140.9 252.1 146.95 252.1 153.35C252.1 159.95 253.25 166.1 255.55 171.8C257.85 177.4 261.05 182.4 265.15 186.8C269.25 191.1 273.95 194.45 279.25 196.85C284.65 199.25 290.4 200.45 296.5 200.45C301.8 200.45 306.8 199.6 311.5 197.9C316.2 196.1 320.65 193.6 324.85 190.4C326.45 189.2 328.05 188.7 329.65 188.9C331.25 189 332.6 189.65 333.7 190.85C334.8 191.95 335.35 193.5 335.35 195.5C335.35 196.4 335.2 197.3 334.9 198.2C334.6 199 334.05 199.75 333.25 200.45C328.05 204.95 322.3 208.25 316 210.35C309.8 212.45 303.3 213.5 296.5 213.5ZM389.856 212.6C381.856 212.6 374.706 210.85 368.406 207.35C362.206 203.75 357.306 198.85 353.706 192.65C350.206 186.35 348.456 179.15 348.456 171.05C348.456 162.85 350.206 155.65 353.706 149.45C357.306 143.15 362.206 138.25 368.406 134.75C374.706 131.15 381.856 129.35 389.856 129.35C397.856 129.35 404.956 131.15 411.156 134.75C417.456 138.25 422.356 143.15 425.856 149.45C429.456 155.65 431.306 162.85 431.406 171.05C431.406 179.15 429.606 186.35 426.006 192.65C422.406 198.85 417.506 203.75 411.306 207.35C405.106 210.85 397.956 212.6 389.856 212.6ZM389.856 200.3C395.356 200.3 400.206 199.05 404.406 196.55C408.606 194.05 411.906 190.6 414.306 186.2C416.706 181.8 417.906 176.75 417.906 171.05C417.906 165.35 416.706 160.3 414.306 155.9C411.906 151.4 408.606 147.9 404.406 145.4C400.206 142.9 395.356 141.65 389.856 141.65C384.456 141.65 379.606 142.9 375.306 145.4C371.106 147.9 367.806 151.4 365.406 155.9C363.006 160.3 361.806 165.35 361.806 171.05C361.806 176.75 363.006 181.8 365.406 186.2C367.806 190.6 371.106 194.05 375.306 196.55C379.606 199.05 384.456 200.3 389.856 200.3ZM490.923 212.6C483.023 212.6 475.973 210.8 469.773 207.2C463.573 203.5 458.673 198.55 455.073 192.35C451.573 186.05 449.823 178.95 449.823 171.05C449.823 162.95 451.523 155.75 454.923 149.45C458.423 143.15 463.173 138.25 469.173 134.75C475.173 131.15 482.123 129.35 490.023 129.35C495.923 129.35 501.373 130.5 506.373 132.8C511.373 135.1 515.823 138.55 519.723 143.15C521.023 144.55 521.473 146.05 521.073 147.65C520.773 149.25 519.773 150.65 518.073 151.85C516.873 152.75 515.473 153.05 513.873 152.75C512.273 152.45 510.873 151.6 509.673 150.2C504.373 144.5 497.823 141.65 490.023 141.65C484.723 141.65 480.023 142.9 475.923 145.4C471.923 147.9 468.773 151.35 466.473 155.75C464.273 160.05 463.173 165.15 463.173 171.05C463.173 176.65 464.323 181.65 466.623 186.05C469.023 190.45 472.323 193.95 476.523 196.55C480.723 199.05 485.523 200.3 490.923 200.3C494.623 200.3 497.923 199.85 500.823 198.95C503.723 198.05 506.323 196.6 508.623 194.6C510.023 193.4 511.473 192.75 512.973 192.65C514.573 192.55 515.973 193 517.173 194C518.673 195.3 519.523 196.75 519.723 198.35C519.923 199.95 519.373 201.35 518.073 202.55C510.873 209.25 501.823 212.6 490.923 212.6ZM556.268 183.05L547.868 173.75L596.018 130.7C597.318 129.4 598.768 128.8 600.368 128.9C602.068 128.9 603.518 129.6 604.718 131C606.018 132.4 606.618 133.95 606.518 135.65C606.518 137.25 605.818 138.65 604.418 139.85L556.268 183.05ZM550.568 212C548.568 212 546.918 211.4 545.618 210.2C544.418 208.9 543.818 207.25 543.818 205.25V101.6C543.818 99.6 544.418 98 545.618 96.8C546.918 95.5 548.568 94.85 550.568 94.85C552.568 94.85 554.168 95.5 555.368 96.8C556.668 98 557.318 99.6 557.318 101.6V205.25C557.318 207.25 556.668 208.9 555.368 210.2C554.168 211.4 552.568 212 550.568 212ZM604.868 211.25C603.368 212.45 601.718 212.95 599.918 212.75C598.218 212.65 596.768 211.85 595.568 210.35L564.068 171.5L573.518 162.5L605.768 202.25C606.968 203.65 607.468 205.2 607.268 206.9C607.168 208.5 606.368 209.95 604.868 211.25ZM660.115 212C655.015 212 650.415 210.75 646.315 208.25C642.215 205.65 639.015 202.2 636.715 197.9C634.415 193.5 633.265 188.5 633.265 182.9V110.75C633.265 108.75 633.865 107.1 635.065 105.8C636.365 104.5 638.015 103.85 640.015 103.85C642.015 103.85 643.665 104.5 644.965 105.8C646.265 107.1 646.915 108.75 646.915 110.75V182.9C646.915 187.4 648.165 191.1 650.665 194C653.165 196.9 656.315 198.35 660.115 198.35H664.765C666.465 198.35 667.865 199 668.965 200.3C670.165 201.6 670.765 203.25 670.765 205.25C670.765 207.25 670.015 208.9 668.515 210.2C667.115 211.4 665.265 212 662.965 212H660.115ZM625.165 144.8C623.365 144.8 621.865 144.25 620.665 143.15C619.465 142.05 618.865 140.65 618.865 138.95C618.865 137.15 619.465 135.7 620.665 134.6C621.865 133.5 623.365 132.95 625.165 132.95H661.315C663.115 132.95 664.615 133.5 665.815 134.6C667.015 135.7 667.615 137.15 667.615 138.95C667.615 140.65 667.015 142.05 665.815 143.15C664.615 144.25 663.115 144.8 661.315 144.8H625.165ZM724.52 212.6C717.02 212.6 710.32 210.8 704.42 207.2C698.52 203.6 693.87 198.65 690.47 192.35C687.07 186.05 685.37 178.95 685.37 171.05C685.37 163.05 687.17 155.95 690.77 149.75C694.47 143.45 699.42 138.5 705.62 134.9C711.92 131.2 718.97 129.35 726.77 129.35C734.67 129.35 741.72 131.2 747.92 134.9C754.12 138.5 759.02 143.45 762.62 149.75C766.32 156.05 768.22 163.15 768.32 171.05L762.92 172.4C762.92 180 761.22 186.85 757.82 192.95C754.42 199.05 749.82 203.85 744.02 207.35C738.32 210.85 731.82 212.6 724.52 212.6ZM726.77 200.3C732.17 200.3 736.97 199.05 741.17 196.55C745.37 193.95 748.67 190.45 751.07 186.05C753.57 181.55 754.82 176.55 754.82 171.05C754.82 165.45 753.57 160.45 751.07 156.05C748.67 151.55 745.37 148.05 741.17 145.55C736.97 142.95 732.17 141.65 726.77 141.65C721.57 141.65 716.82 142.95 712.52 145.55C708.22 148.05 704.82 151.55 702.32 156.05C699.92 160.45 698.72 165.45 698.72 171.05C698.72 176.55 699.92 181.55 702.32 186.05C704.82 190.45 708.22 193.95 712.52 196.55C716.82 199.05 721.57 200.3 726.77 200.3ZM761.27 212.15C759.27 212.15 757.62 211.5 756.32 210.2C755.02 208.9 754.37 207.25 754.37 205.25V181.25L757.22 166.85L768.32 171.05V205.25C768.32 207.25 767.62 208.9 766.22 210.2C764.92 211.5 763.27 212.15 761.27 212.15ZM799.788 212C797.688 212 795.988 211.35 794.688 210.05C793.388 208.75 792.738 207.1 792.738 205.1V136.85C792.738 134.75 793.388 133.1 794.688 131.9C795.988 130.6 797.688 129.95 799.788 129.95C801.788 129.95 803.438 130.6 804.738 131.9C806.038 133.1 806.688 134.75 806.688 136.85V205.1C806.688 207.1 806.038 208.75 804.738 210.05C803.438 211.35 801.788 212 799.788 212ZM799.638 115.7C797.138 115.7 794.988 114.8 793.188 113C791.388 111.2 790.488 109 790.488 106.4C790.488 103.8 791.388 101.65 793.188 99.95C795.088 98.15 797.288 97.25 799.788 97.25C802.188 97.25 804.288 98.15 806.088 99.95C807.988 101.65 808.938 103.8 808.938 106.4C808.938 109 808.038 111.2 806.238 113C804.438 114.8 802.238 115.7 799.638 115.7ZM854.219 212C850.019 212 846.269 210.85 842.969 208.55C839.669 206.25 837.069 203.1 835.169 199.1C833.369 195 832.469 190.3 832.469 185V101.6C832.469 99.6 833.069 98 834.269 96.8C835.569 95.5 837.219 94.85 839.219 94.85C841.319 94.85 842.969 95.5 844.169 96.8C845.469 98 846.119 99.6 846.119 101.6V185C846.119 188.9 846.869 192.1 848.369 194.6C849.969 197.1 851.919 198.35 854.219 198.35H857.969C859.869 198.35 861.369 199 862.469 200.3C863.569 201.5 864.119 203.15 864.119 205.25C864.119 207.25 863.269 208.9 861.569 210.2C859.969 211.4 857.869 212 855.269 212H854.219Z" fill="#A0B3C2"/>
<path d="M888.264 212C886.164 212 884.414 211.35 883.014 210.05C881.614 208.65 880.914 206.95 880.914 204.95V101.9C880.914 99.8 881.564 98.1 882.864 96.8C884.264 95.5 885.964 94.85 887.964 94.85H924.114C930.514 94.85 936.214 96.15 941.214 98.75C946.314 101.35 950.314 104.95 953.214 109.55C956.114 114.15 957.564 119.45 957.564 125.45C957.564 130.55 956.164 135.15 953.364 139.25C950.664 143.25 947.014 146.35 942.414 148.55C949.014 150.25 954.314 153.5 958.314 158.3C962.414 163.1 964.464 169.3 964.464 176.9C964.464 183.8 962.864 189.9 959.664 195.2C956.464 200.4 952.014 204.5 946.314 207.5C940.714 210.5 934.264 212 926.964 212H888.264ZM895.014 198.8H926.964C931.664 198.8 935.764 197.95 939.264 196.25C942.864 194.55 945.664 192.1 947.664 188.9C949.764 185.6 950.814 181.6 950.814 176.9C950.814 172.5 949.764 168.8 947.664 165.8C945.664 162.8 942.864 160.5 939.264 158.9C935.764 157.3 931.664 156.5 926.964 156.5H895.014V198.8ZM895.014 143.3H924.114C929.914 143.3 934.664 141.8 938.364 138.8C942.164 135.7 944.064 131.25 944.064 125.45C944.064 119.65 942.164 115.3 938.364 112.4C934.664 109.5 929.914 108.05 924.114 108.05H895.014V143.3ZM1021.15 212.6C1013.65 212.6 1006.95 210.8 1001.05 207.2C995.151 203.6 990.501 198.65 987.101 192.35C983.701 186.05 982.001 178.95 982.001 171.05C982.001 163.05 983.801 155.95 987.401 149.75C991.101 143.45 996.051 138.5 1002.25 134.9C1008.55 131.2 1015.6 129.35 1023.4 129.35C1031.3 129.35 1038.35 131.2 1044.55 134.9C1050.75 138.5 1055.65 143.45 1059.25 149.75C1062.95 156.05 1064.85 163.15 1064.95 171.05L1059.55 172.4C1059.55 180 1057.85 186.85 1054.45 192.95C1051.05 199.05 1046.45 203.85 1040.65 207.35C1034.95 210.85 1028.45 212.6 1021.15 212.6ZM1023.4 200.3C1028.8 200.3 1033.6 199.05 1037.8 196.55C1042 193.95 1045.3 190.45 1047.7 186.05C1050.2 181.55 1051.45 176.55 1051.45 171.05C1051.45 165.45 1050.2 160.45 1047.7 156.05C1045.3 151.55 1042 148.05 1037.8 145.55C1033.6 142.95 1028.8 141.65 1023.4 141.65C1018.2 141.65 1013.45 142.95 1009.15 145.55C1004.85 148.05 1001.45 151.55 998.951 156.05C996.551 160.45 995.351 165.45 995.351 171.05C995.351 176.55 996.551 181.55 998.951 186.05C1001.45 190.45 1004.85 193.95 1009.15 196.55C1013.45 199.05 1018.2 200.3 1023.4 200.3ZM1057.9 212.15C1055.9 212.15 1054.25 211.5 1052.95 210.2C1051.65 208.9 1051 207.25 1051 205.25V181.25L1053.85 166.85L1064.95 171.05V205.25C1064.95 207.25 1064.25 208.9 1062.85 210.2C1061.55 211.5 1059.9 212.15 1057.9 212.15ZM1093.87 161C1094.07 154.9 1095.62 149.45 1098.52 144.65C1101.52 139.85 1105.47 136.05 1110.37 133.25C1115.27 130.45 1120.67 129.05 1126.57 129.05C1132.07 129.05 1136.17 129.9 1138.87 131.6C1141.67 133.3 1142.72 135.45 1142.02 138.05C1141.72 139.55 1141.12 140.65 1140.22 141.35C1139.32 141.95 1138.27 142.3 1137.07 142.4C1135.87 142.4 1134.57 142.3 1133.17 142.1C1127.07 141.1 1121.62 141.25 1116.82 142.55C1112.02 143.85 1108.22 146.1 1105.42 149.3C1102.62 152.5 1101.22 156.4 1101.22 161H1093.87ZM1094.32 212C1092.22 212 1090.57 211.45 1089.37 210.35C1088.17 209.15 1087.57 207.45 1087.57 205.25V136.7C1087.57 134.6 1088.17 132.95 1089.37 131.75C1090.57 130.55 1092.22 129.95 1094.32 129.95C1096.62 129.95 1098.32 130.55 1099.42 131.75C1100.62 132.85 1101.22 134.5 1101.22 136.7V205.25C1101.22 207.35 1100.62 209 1099.42 210.2C1098.32 211.4 1096.62 212 1094.32 212Z" fill="#2F5DB8"/>
<path d="M182.243 201.44C182.243 218.806 168.203 232.884 150.883 232.884H103.501C86.1819 232.884 72.1416 218.806 72.1416 201.44V71.9404H182.243V201.44Z" fill="#A0B3C2"/>
<path d="M169.142 249H85.5524C81.114 249 77.5156 245.392 77.5156 240.941C77.5156 236.491 81.114 232.883 85.5524 232.883H169.142C173.581 232.883 177.179 236.491 177.179 240.941C177.179 245.392 173.581 249 169.142 249Z" fill="#2F5DB8"/>
<path d="M112.659 71.9417C112.659 49.624 94.5181 31.5319 72.1401 31.5319C49.7621 31.5319 31.6211 49.624 31.6211 71.9417C31.6211 94.2595 49.7621 112.352 72.1401 112.352C94.5181 112.352 112.659 94.2595 112.659 71.9417Z" fill="#D55E2D" fill-opacity="0.6"/>
<path d="M127.191 71.9395V232.883H150.883C168.202 232.883 182.242 218.806 182.242 201.439V71.9395H127.191Z" fill="#A0B3C2"/>
<path d="M72.1416 140.214V201.44C72.1416 218.806 86.1814 232.884 103.501 232.884H150.884C168.203 232.884 182.243 218.806 182.243 201.44V140.214H72.1416Z" fill="#2F5DB8"/>
<path d="M127.191 140.214V232.884H150.883C168.202 232.884 182.242 218.807 182.242 201.44V140.214H127.191Z" fill="#2F5DB8"/>
<path d="M72.1317 112.455V71.9366H112.542C112.542 49.5586 94.4503 31.4181 72.1327 31.4181C49.815 31.4181 31.7233 49.5586 31.7233 71.9366C31.7233 94.3145 49.8145 112.455 72.1317 112.455Z" fill="#D55E2D"/>
<path d="M31.7314 71.9395C31.7314 94.3174 49.8231 112.458 72.1408 112.458V71.9395H31.7314Z" fill="#D55E2D"/>
<path d="M118.556 211.266C117.888 211.266 117.21 211.182 116.534 211.006C112.237 209.889 109.657 205.491 110.771 201.183L161.207 6.03709C161.846 3.568 163.612 1.54779 165.969 0.589235C168.326 -0.367375 170.997 -0.150472 173.169 1.17623L212.742 25.3512C216.533 27.6666 217.733 32.6247 215.424 36.4259C213.115 40.226 208.171 41.4312 204.379 39.1148L174.051 20.5885L126.331 205.226C125.392 208.857 122.13 211.266 118.556 211.266Z" fill="white" fill-opacity="0.25"/>
</svg>
